<?xml version="1.0" encoding="utf-8"?>
<!-- Generator: Adobe Illustrator 19.0.0, SVG Export Plug-In . SVG Version: 6.00 Build 0)  -->
<svg version="1.1" id="layer" xmlns="http://www.w3.org/2000/svg" xmlns:xlink="http://www.w3.org/1999/xlink" x="0px" y="0px"
	 viewBox="-153 -46 652 652" style="enable-background:new -153 -46 652 652;" xml:space="preserve">
<style type="text/css">
	.st0{fill:#F8D100;}
	.st1{fill:#E3001B;}
</style>
<path d="M51,178.8V142h18.1l-0.3,3.7H55.6v13.6h12.1v3.7H55.6v15.9 M89.9,161.9c0,1.1,0,2.1-0.1,2.9c-0.1,0.8-0.1,1.5-0.2,2.1H76.5
	c0.1,3,0.8,5.2,2,6.7c1.2,1.4,2.8,2.1,5,2.1c0.8,0,1.4-0.1,2-0.3c0.6-0.2,1.1-0.4,1.6-0.6c0.4-0.2,0.8-0.5,1.1-0.7
	c0.3-0.3,0.5-0.4,0.7-0.6l1.6,3c-0.2,0.2-0.4,0.4-0.8,0.8c-0.4,0.3-0.8,0.7-1.4,1c-0.6,0.3-1.4,0.6-2.2,0.9
	c-0.9,0.2-1.9,0.4-3.2,0.4c-1.6,0-3.1-0.3-4.3-0.8c-1.3-0.5-2.4-1.4-3.3-2.5c-0.9-1.1-1.6-2.5-2.1-4.3c-0.5-1.7-0.8-3.8-0.8-6.2
	c0-2.3,0.3-4.2,0.8-5.9c0.5-1.7,1.2-3,2.1-4.1c0.9-1.1,1.9-1.9,3.1-2.4c1.2-0.5,2.4-0.8,3.8-0.8c2.5,0,4.4,0.8,5.8,2.3
	C89.3,156.4,89.9,158.8,89.9,161.9z M81.8,156.1c-1.5,0-2.8,0.6-3.7,1.9c-0.9,1.3-1.5,3.1-1.6,5.6h9.3c0-0.2,0.1-0.4,0.1-0.8
	c0-0.3,0-0.7,0-1.1c0-1.8-0.4-3.2-1.1-4.1C84.2,156.6,83.2,156.1,81.8,156.1z M94.5,166.4c0-2.6,0.3-4.8,1-6.5
	c0.7-1.7,1.6-3.2,2.6-4.2c1.1-1.1,2.3-1.8,3.6-2.3c1.4-0.4,2.7-0.7,4.1-0.7c0.8,0,1.5,0.1,2.1,0.2c0.6,0.1,1.1,0.3,1.5,0.5v-12.3
	l4.3-0.5v38.2h-4v-2.7h-0.1c-0.1,0.2-0.3,0.5-0.6,0.9c-0.3,0.4-0.7,0.7-1.2,1.1c-0.5,0.4-1.1,0.7-1.9,1c-0.7,0.3-1.6,0.4-2.6,0.4
	c-1.2,0-2.4-0.2-3.4-0.7c-1.1-0.5-2-1.2-2.9-2.3c-0.8-1-1.5-2.4-1.9-4.1C94.8,170.7,94.5,168.7,94.5,166.4z M104.7,175.6
	c0.7,0,1.3-0.1,1.8-0.3c0.5-0.2,1-0.4,1.4-0.7c0.4-0.3,0.7-0.5,1-0.8c0.3-0.3,0.5-0.5,0.6-0.7v-15.8c-0.4-0.3-0.8-0.5-1.4-0.6
	c-0.5-0.2-1.2-0.3-1.9-0.3c-1,0-1.9,0.2-2.8,0.5c-0.9,0.3-1.6,0.9-2.3,1.7c-0.6,0.8-1.1,1.8-1.5,3c-0.4,1.2-0.6,2.8-0.6,4.6
	c0,1.8,0.2,3.3,0.5,4.5c0.3,1.2,0.7,2.2,1.3,2.9c0.5,0.7,1.1,1.3,1.8,1.6C103.2,175.5,103.9,175.6,104.7,175.6z M136.9,161.9
	c0,1.1,0,2.1-0.1,2.9c-0.1,0.8-0.1,1.5-0.2,2.1h-13.1c0.1,3,0.8,5.2,1.9,6.7c1.2,1.4,2.8,2.1,5,2.1c0.7,0,1.4-0.1,2-0.3
	c0.6-0.2,1.1-0.4,1.6-0.6c0.4-0.2,0.8-0.5,1.1-0.7c0.3-0.3,0.5-0.4,0.7-0.6l1.6,3c-0.2,0.2-0.4,0.4-0.8,0.8c-0.4,0.3-0.8,0.7-1.4,1
	c-0.6,0.3-1.4,0.6-2.2,0.9c-0.9,0.2-1.9,0.4-3.1,0.4c-1.6,0-3.1-0.3-4.4-0.8c-1.3-0.5-2.4-1.4-3.3-2.5c-0.9-1.1-1.6-2.5-2.1-4.3
	c-0.5-1.7-0.7-3.8-0.7-6.2c0-2.3,0.3-4.2,0.8-5.9c0.5-1.7,1.2-3,2.1-4.1s1.9-1.9,3.1-2.4c1.2-0.5,2.4-0.8,3.8-0.8
	c2.5,0,4.4,0.8,5.8,2.3C136.2,156.4,136.9,158.8,136.9,161.9z M128.8,156.1c-1.5,0-2.8,0.6-3.7,1.9c-0.9,1.3-1.5,3.1-1.6,5.6h9.3
	c0-0.2,0.1-0.4,0.1-0.8c0-0.3,0-0.7,0-1.1c0-1.8-0.4-3.2-1.1-4.1C131.2,156.6,130.1,156.1,128.8,156.1z M153.9,157
	c-0.1-0.1-0.3-0.2-0.7-0.3c-0.4-0.1-0.8-0.2-1.4-0.2c-1.4,0-2.4,0.4-3.2,1.1c-0.8,0.7-1.3,1.5-1.6,2.4v18.8h-4.3v-25.6h3.9v3.5h0.1
	c0.2-0.5,0.4-1,0.7-1.5c0.3-0.5,0.6-0.9,1.1-1.3c0.4-0.4,0.9-0.7,1.5-0.9c0.6-0.2,1.3-0.3,2.1-0.3c0.6,0,1.1,0.1,1.5,0.2
	c0.4,0.1,0.7,0.2,0.9,0.3L153.9,157z M156.4,172.3c0-1.5,0.3-2.7,0.9-3.7c0.6-1,1.3-1.8,2.3-2.4c1-0.6,2.1-1.1,3.4-1.3
	c1.3-0.3,2.7-0.4,4.1-0.4h1.3V162c0-2.2-0.4-3.7-1.1-4.5c-0.8-0.8-1.8-1.2-3.2-1.2c-1.3,0-2.4,0.3-3.2,0.8c-0.9,0.6-1.5,1-2,1.5
	l-1.8-2.9c0.3-0.3,0.7-0.6,1.1-1c0.4-0.4,1-0.7,1.6-1c0.6-0.3,1.4-0.6,2.2-0.8c0.8-0.2,1.7-0.3,2.8-0.3c2.6,0,4.6,0.7,6,2.2
	c1.4,1.5,2,3.8,2,7v11.7c0,1.1,0,2.2,0.1,3.2c0.1,1.1,0.1,1.8,0.2,2.1h-4.1l-0.2-2.8h-0.1c-0.1,0.3-0.4,0.7-0.6,1.1
	c-0.3,0.4-0.6,0.8-1.1,1.1c-0.4,0.3-0.9,0.6-1.6,0.9c-0.6,0.2-1.3,0.4-2.1,0.4c-1,0-1.9-0.2-2.7-0.5c-0.8-0.4-1.6-0.9-2.2-1.5
	c-0.6-0.6-1.1-1.4-1.4-2.3C156.6,174.3,156.4,173.4,156.4,172.3z M164.2,175.8c0.6,0,1.1-0.1,1.6-0.3c0.5-0.2,0.9-0.4,1.2-0.6
	c0.3-0.2,0.6-0.5,0.9-0.8c0.2-0.3,0.4-0.6,0.6-0.8v-5.7l-1.4,0.1c-2.1,0.1-3.6,0.4-4.7,1.1c-1.1,0.6-1.6,1.7-1.6,3.1
	c0,1.3,0.3,2.3,0.9,3C162.3,175.5,163.1,175.8,164.2,175.8z M183.5,172.9c0,1.1,0.2,1.8,0.4,2.2c0.3,0.4,0.8,0.6,1.6,0.6
	c0.4,0,0.7,0,1-0.1c0.3-0.1,0.5-0.1,0.6-0.2l0.4,3.2c-0.2,0.1-0.6,0.2-1.2,0.4c-0.6,0.2-1.3,0.3-2.3,0.3c-1.5,0-2.6-0.4-3.5-1.3
	c-0.9-0.9-1.3-2.5-1.3-4.8v-32.1l4.3-0.5V172.9z M203.6,178.8V142h18.1l-0.3,3.7h-13.1v13.6h12.1v3.7h-12.1v15.9H203.6z M225,166
	c0-2.3,0.3-4.4,0.8-6.1c0.6-1.7,1.3-3.1,2.2-4.2c0.9-1.1,2-1.9,3.3-2.4c1.2-0.5,2.5-0.8,3.9-0.8c1.4,0,2.7,0.3,4,0.8
	c1.2,0.5,2.3,1.3,3.1,2.4c0.9,1.1,1.6,2.5,2.1,4.2c0.5,1.7,0.8,3.7,0.8,6.1c0,2.4-0.3,4.4-0.8,6.1c-0.5,1.7-1.3,3.1-2.2,4.2
	c-0.9,1.1-2,1.9-3.3,2.4c-1.2,0.5-2.6,0.7-4,0.7c-1.4,0-2.7-0.3-3.9-0.7c-1.2-0.5-2.3-1.3-3.1-2.4c-0.9-1.1-1.6-2.5-2.1-4.2
	C225.2,170.5,225,168.4,225,166z M240.7,166c0-3.4-0.5-5.9-1.5-7.4c-1-1.5-2.4-2.3-4.2-2.3c-1.8,0-3.2,0.8-4.1,2.3
	c-1,1.5-1.5,4-1.5,7.4c0,3.4,0.5,5.9,1.5,7.4c1,1.5,2.4,2.2,4.2,2.2c1.8,0,3.2-0.7,4.1-2.2C240.2,171.9,240.7,169.4,240.7,166z
	 M261.9,157c-0.1-0.1-0.3-0.2-0.7-0.3c-0.4-0.1-0.8-0.2-1.4-0.2c-1.3,0-2.4,0.4-3.2,1.1c-0.8,0.7-1.3,1.5-1.6,2.4v18.8h-4.3v-25.6h4
	v3.5h0.1c0.2-0.5,0.4-1,0.7-1.5c0.3-0.5,0.6-0.9,1.1-1.3c0.4-0.4,0.9-0.7,1.5-0.9c0.6-0.2,1.3-0.3,2.1-0.3c0.6,0,1.1,0.1,1.5,0.2
	c0.4,0.1,0.7,0.2,0.9,0.3L261.9,157z M282,161.9c0,1.1,0,2.1-0.1,2.9c-0.1,0.8-0.1,1.5-0.2,2.1h-13.1c0.1,3,0.8,5.2,1.9,6.7
	c1.2,1.4,2.8,2.1,5,2.1c0.7,0,1.4-0.1,2-0.3c0.6-0.2,1.1-0.4,1.6-0.6c0.4-0.2,0.8-0.5,1.1-0.7c0.3-0.3,0.5-0.4,0.7-0.6l1.6,3
	c-0.2,0.2-0.4,0.4-0.8,0.8c-0.4,0.3-0.8,0.7-1.4,1c-0.6,0.3-1.4,0.6-2.2,0.9c-0.9,0.2-1.9,0.4-3.1,0.4c-1.6,0-3.1-0.3-4.4-0.8
	c-1.3-0.5-2.4-1.4-3.3-2.5c-0.9-1.1-1.6-2.5-2.1-4.3c-0.5-1.7-0.7-3.8-0.7-6.2c0-2.3,0.3-4.2,0.8-5.9c0.5-1.7,1.2-3,2.1-4.1
	c0.9-1.1,1.9-1.9,3.1-2.4c1.2-0.5,2.4-0.8,3.8-0.8c2.5,0,4.4,0.8,5.8,2.3C281.3,156.4,282,158.8,282,161.9z M273.9,156.1
	c-1.5,0-2.8,0.6-3.7,1.9c-0.9,1.3-1.5,3.1-1.6,5.6h9.3c0-0.2,0.1-0.4,0.1-0.8c0-0.3,0-0.7,0-1.1c0-1.8-0.4-3.2-1.1-4.1
	C276.3,156.6,275.2,156.1,273.9,156.1z M292.1,178.8h-4.3v-25.6h4.3V178.8z M290,147c-0.9,0-1.6-0.3-2.1-0.9
	c-0.5-0.6-0.8-1.3-0.8-2.2c0-0.9,0.3-1.6,0.8-2.2c0.5-0.6,1.2-0.9,2.1-0.9c0.9,0,1.6,0.3,2.1,0.9c0.5,0.6,0.8,1.3,0.8,2.2
	c0,0.9-0.3,1.7-0.8,2.2C291.5,146.7,290.8,147,290,147z M317.1,156.6h-3.2c0.8,1.4,1.2,2.9,1.2,4.6c0,1.4-0.2,2.6-0.7,3.7
	c-0.4,1.1-1.1,2-1.9,2.7c-0.8,0.7-1.7,1.3-2.8,1.7c-1.1,0.4-2.3,0.6-3.5,0.6c-0.3,0-0.5,0-0.7,0c-0.2,0-0.4,0-0.7-0.1
	c-0.4,0.2-0.9,0.5-1.3,0.9c-0.5,0.4-0.7,0.9-0.7,1.5c0,0.5,0.2,1,0.6,1.3c0.4,0.3,1.1,0.5,2,0.5h3.3c1.2,0,2.3,0.1,3.4,0.4
	c1,0.2,1.9,0.6,2.7,1.2c0.8,0.5,1.4,1.3,1.8,2.1c0.4,0.9,0.6,1.9,0.6,3.1c0,1.4-0.3,2.7-0.9,3.8c-0.6,1.1-1.4,2.1-2.5,2.9
	c-1.1,0.8-2.4,1.5-3.9,1.9c-1.5,0.5-3.2,0.7-5.1,0.7c-2.7,0-4.8-0.6-6.2-1.8c-1.4-1.2-2.1-2.9-2.1-5.2c0-1,0.2-1.8,0.5-2.5
	c0.3-0.7,0.7-1.3,1.2-1.8c0.5-0.5,0.9-0.9,1.4-1.2c0.5-0.3,0.9-0.5,1.1-0.7v-0.1c-1.1-0.8-1.7-2-1.7-3.6c0-0.7,0.1-1.3,0.4-1.8
	c0.3-0.5,0.6-0.9,0.9-1.2c0.3-0.3,0.7-0.6,1-0.8c0.3-0.2,0.6-0.3,0.8-0.4V169c-1.3-0.6-2.4-1.6-3.2-2.9c-0.8-1.3-1.2-3-1.2-5
	c0-1.4,0.2-2.7,0.7-3.8c0.5-1.1,1.1-2,1.9-2.7c0.8-0.7,1.7-1.2,2.7-1.6c1.1-0.4,2.2-0.5,3.4-0.5c1.2,0,2.4,0.2,3.4,0.6h7.8
	L317.1,156.6z M305.2,178c-0.8,0-1.4-0.1-2-0.2c-0.3,0.2-0.6,0.4-0.9,0.6c-0.3,0.3-0.6,0.6-0.8,0.9c-0.2,0.4-0.4,0.8-0.6,1.3
	c-0.2,0.5-0.2,1-0.2,1.7c0,2.7,1.5,4.1,4.5,4.1c2.6,0,4.5-0.5,5.8-1.5c1.2-1,1.9-2.2,1.9-3.5c0-1.2-0.4-2.1-1.2-2.6
	c-0.8-0.5-1.8-0.8-3.1-0.8H305.2z M310.9,161.2c0-1.8-0.4-3.2-1.3-3.9c-0.9-0.8-1.9-1.2-3.1-1.2c-1.2,0-2.3,0.4-3.2,1.2
	c-0.9,0.8-1.3,2.1-1.3,3.9c0,1.9,0.4,3.2,1.3,4c0.9,0.8,1.9,1.2,3.1,1.2c1.2,0,2.3-0.4,3.2-1.2C310.5,164.3,310.9,163,310.9,161.2z
	 M336,178.8v-16.5c0-2.2-0.4-3.7-1.1-4.7c-0.7-0.9-1.8-1.4-3.3-1.4c-1.3,0-2.3,0.3-3.2,1c-0.9,0.6-1.5,1.3-2,1.9v19.8H322v-25.6h4
	v2.9h0.1c0.1-0.2,0.3-0.5,0.7-0.9c0.3-0.4,0.8-0.8,1.4-1.2c0.6-0.4,1.2-0.7,2-1c0.8-0.3,1.7-0.4,2.7-0.4c1.1,0,2.2,0.2,3.1,0.5
	c0.9,0.3,1.7,0.9,2.3,1.6c0.6,0.7,1.1,1.7,1.5,2.9c0.4,1.2,0.5,2.7,0.5,4.4v16.8H336z M385.8,160.4c0,3.2-0.4,6-1.1,8.4
	c-0.7,2.4-1.7,4.4-3,6c-1.3,1.6-2.8,2.8-4.5,3.6c-1.8,0.8-3.7,1.2-5.8,1.2c-2.1,0-4.1-0.4-5.8-1.2c-1.7-0.8-3.2-2-4.5-3.5
	c-1.2-1.6-2.2-3.5-2.9-5.9c-0.7-2.4-1-5.2-1-8.4c0-3.2,0.4-6,1.1-8.4c0.7-2.4,1.7-4.4,3-6c1.3-1.6,2.8-2.8,4.5-3.6
	c1.8-0.8,3.7-1.2,5.8-1.2c2.1,0,4.1,0.4,5.8,1.2c1.7,0.8,3.2,2,4.5,3.5c1.2,1.6,2.2,3.5,2.9,5.9
	C385.5,154.4,385.8,157.2,385.8,160.4z M380.8,160.4c0-5.1-0.8-8.8-2.5-11.4c-1.7-2.5-3.9-3.8-6.8-3.8c-2.9,0-5.2,1.3-6.8,3.8
	c-1.7,2.5-2.5,6.3-2.5,11.3c0,5.1,0.8,8.8,2.5,11.4c1.7,2.5,3.9,3.8,6.8,3.8c2.9,0,5.2-1.3,6.8-3.8
	C380,169.1,380.8,165.3,380.8,160.4z M402.4,156.7h-5.2v22.1h-4.3v-22.1h-3.1v-2.9l3.1-0.6v-5.1c0-1.4,0.2-2.6,0.6-3.6
	c0.4-1,0.9-1.8,1.6-2.5c0.6-0.6,1.4-1.1,2.2-1.4c0.9-0.3,1.8-0.4,2.7-0.4c0.9,0,1.7,0.1,2.3,0.4c0.6,0.2,1.1,0.4,1.3,0.6l-0.9,3.6
	c-0.2-0.1-0.5-0.3-0.9-0.5c-0.4-0.2-0.9-0.2-1.4-0.2c-1,0-1.8,0.3-2.3,1c-0.5,0.6-0.8,1.8-0.8,3.5v4.6h5.8L402.4,156.7z
	 M417.5,156.7h-5.2v22.1h-4.3v-22.1h-3.1v-2.9l3.1-0.6v-5.1c0-1.4,0.2-2.6,0.6-3.6c0.4-1,0.9-1.8,1.6-2.5c0.6-0.6,1.4-1.1,2.2-1.4
	c0.9-0.3,1.8-0.4,2.7-0.4c0.9,0,1.7,0.1,2.3,0.4c0.6,0.2,1.1,0.4,1.3,0.6l-0.9,3.6c-0.2-0.1-0.5-0.3-0.9-0.5
	c-0.4-0.2-0.9-0.2-1.4-0.2c-1,0-1.8,0.3-2.4,1c-0.5,0.6-0.8,1.8-0.8,3.5v4.6h5.8L417.5,156.7z M426.1,178.8h-4.3v-25.6h4.3V178.8z
	 M423.9,147c-0.9,0-1.6-0.3-2.1-0.9c-0.5-0.6-0.8-1.3-0.8-2.2c0-0.9,0.3-1.6,0.8-2.2c0.5-0.6,1.2-0.9,2.1-0.9c0.9,0,1.6,0.3,2.1,0.9
	c0.5,0.6,0.8,1.3,0.8,2.2c0,0.9-0.3,1.7-0.8,2.2C425.5,146.7,424.8,147,423.9,147z M446.9,158.2c-0.1-0.1-0.3-0.3-0.5-0.5
	c-0.2-0.2-0.5-0.4-0.9-0.6c-0.4-0.2-0.8-0.4-1.3-0.6c-0.5-0.2-1.1-0.2-1.7-0.2c-0.9,0-1.8,0.2-2.6,0.5c-0.8,0.3-1.5,0.9-2.1,1.6
	c-0.6,0.7-1.1,1.7-1.4,2.9c-0.3,1.2-0.5,2.6-0.5,4.4c0,1.9,0.2,3.5,0.5,4.8c0.3,1.3,0.7,2.3,1.3,3.1c0.5,0.8,1.2,1.3,1.9,1.7
	c0.8,0.3,1.6,0.5,2.5,0.5c1.3,0,2.3-0.2,3-0.7c0.7-0.5,1.2-0.8,1.5-1.1l1.8,3c-0.2,0.2-0.4,0.5-0.8,0.8c-0.3,0.3-0.8,0.6-1.3,0.9
	c-0.5,0.3-1.2,0.5-1.9,0.7c-0.8,0.2-1.6,0.3-2.6,0.3c-1.4,0-2.8-0.2-4-0.7c-1.2-0.5-2.3-1.2-3.3-2.3c-0.9-1.1-1.7-2.5-2.2-4.2
	c-0.5-1.7-0.8-3.8-0.8-6.4c0-2.5,0.3-4.5,1-6.2c0.6-1.7,1.5-3.1,2.5-4.1c1-1,2.2-1.8,3.4-2.3c1.3-0.5,2.5-0.7,3.8-0.7
	c1,0,1.8,0.1,2.5,0.3c0.7,0.2,1.4,0.4,1.9,0.7c0.5,0.3,0.9,0.6,1.3,0.9c0.3,0.3,0.6,0.6,0.8,0.8L446.9,158.2z M469.3,161.9
	c0,1.1,0,2.1-0.1,2.9c-0.1,0.8-0.1,1.5-0.2,2.1h-13.1c0.1,3,0.8,5.2,1.9,6.7c1.2,1.4,2.8,2.1,5,2.1c0.7,0,1.4-0.1,2-0.3
	c0.6-0.2,1.1-0.4,1.6-0.6c0.4-0.2,0.8-0.5,1.1-0.7c0.3-0.3,0.5-0.4,0.7-0.6l1.6,3c-0.2,0.2-0.4,0.4-0.8,0.8c-0.4,0.3-0.8,0.7-1.4,1
	c-0.6,0.3-1.4,0.6-2.2,0.9c-0.9,0.2-1.9,0.4-3.2,0.4c-1.6,0-3.1-0.3-4.4-0.8c-1.3-0.5-2.4-1.4-3.3-2.5c-0.9-1.1-1.6-2.5-2.1-4.3
	c-0.5-1.7-0.7-3.8-0.7-6.2c0-2.3,0.3-4.2,0.8-5.9c0.5-1.7,1.2-3,2.1-4.1c0.9-1.1,1.9-1.9,3.1-2.4c1.2-0.5,2.4-0.8,3.8-0.8
	c2.5,0,4.4,0.8,5.8,2.3C468.6,156.4,469.3,158.8,469.3,161.9z M461.2,156.1c-1.5,0-2.8,0.6-3.7,1.9c-0.9,1.3-1.5,3.1-1.6,5.6h9.4
	c0-0.2,0.1-0.4,0.1-0.8c0-0.3,0-0.7,0-1.1c0-1.8-0.4-3.2-1.1-4.1C463.6,156.6,462.6,156.1,461.2,156.1z"/>
<polyline class="st0" points="10.9,322.4 17.6,322.4 17.6,412.1 1.9,412.1 1.9,322.4 "/>
<polyline class="st1" points="10.9,232.2 17.6,232.2 17.6,322.4 1.9,322.4 1.9,232.2 "/>
<path d="M-39,174.3c4.6,7.3,8.2,7.1,13.6,7.1c-4.5-3.4-7.5-7.9-8.9-10.1l-8.4-13.4c-0.8-4.1-3-8-6.2-10.9c1.1-0.4,2-0.8,2.5-1.2
	c-5.5,0-10.9-2.8-13.9-2.8c-1.9,0-3.2,1.1-3.2,2.7c0.1,1.7,1.9,3.4,5.1,3.4c0.7,0,1.7-0.1,2.7-0.3c1.7,2.4,3.1,4.6,3.1,7.7
	c0,5.9-7,10.5-14.1,10.5c-0.4,0-0.8,0-1.2,0c-0.6-1.5-2.8-3.9-2.8-6.7c0-4.7,3-8.5,3-13.1c0-2.9-1.4-4.7-1.9-5.4
	c0.9-0.8,1.8-1.8,2-2.5c-0.5,0.2-1.1,0.2-2,0.2c-3.4,0-6.2-0.9-8.9-0.9c-1.5,0-2,0.5-2,0.9c0,0.2,0,0.3,0.1,0.4
	c-0.6-0.2-1.1-0.4-1.8-0.5c-0.8-0.2-1.7-0.2-2.6-0.2c-3.3,0-4.5,1.4-4.5,2.6c0,1,0.8,2.8,1.7,4.2c1.3-0.6,2.8-1.1,3.5-1.1
	c1.7,0,3.3,1.7,4.1,3.6c-1.2,0.1-1.4,0.2-2.6,0.2c-3.2,0-5.4-1.1-5.8-1.1c0,0-0.1,0-0.1,0.1c0,0.4,0.9,1.6,2.7,2.3
	c2.4,0.9,5.9,1.2,6.5,1.3c0,0.1-0.6,1.2-1.3,1.4c-0.1,0-0.3,0.1-0.4,0c-2.5-0.5-3.1-0.7-6.3-1.9c-0.1,0-0.2,0-0.2,0.1
	c0,1.2,3.2,4,6.1,5c-2.4,3.1-5.4,6.2-6.8,10.9c-0.4,0-0.8,0-1.2,0c-7.1,0-14.1-4.6-14.1-10.5c0-3.1,1.4-5.3,3.1-7.7
	c1,0.2,2,0.3,2.7,0.3c3.2,0,5-1.7,5.1-3.4c0-1.5-1.2-2.7-3.2-2.7c-3,0-8.4,2.8-13.9,2.8c0.5,0.4,1.4,0.8,2.5,1.2
	c-3.2,2.9-5.4,6.8-6.2,10.9l-8.4,13.4c-1.4,2.2-4.4,6.7-8.9,10.1c5.4,0,9,0.1,13.6-7.1l4.3-6.9c0.3,0.9,0.7,1.8,1.2,2.6l-8.6,13.7
	c-1.4,2.3-4.4,6.6-8.9,10.1c5.4,0,9,0.1,13.6-7.1l7.4-11.8c0.5,0.6,1.1,1.2,1.7,1.7l-10.4,16.6c-1.4,2.3-4.4,6.6-8.9,10.1
	c5.4,0,9,0.1,13.6-7.1l10.1-16.2c0.7,0.4,1.3,0.8,2.1,1.2l-12.4,19.8c-1.4,2.3-4.4,6.6-8.9,10.1c5.4,0,9,0.1,13.6-7.1l12.7-20.4
	c0.8,0.3,1.5,0.6,2.3,0.8l-14.4,23c-1.4,2.2-4.4,6.7-8.9,10.1c5.4,0,9,0.1,13.6-7.1l15.3-24.5c0.2,0,0.3,0.1,0.5,0.1
	c0.4,1.3,0.7,2.6,0.7,3.8c0,7.7-5.1,14.5-11.1,19.8c0.4,0.2,1.1,0.2,1.7,0.2c1.3,0,2.1-0.1,2.6-0.2c-1.4,3.2-4.4,7.3-6,9.5
	c-2-0.4-4.9-0.6-6.8-0.6c-2,0-2.2,1.2-2.2,2.2c0,1.8,0.8,3.2,1.8,4c0.4-0.9,1.1-2.2,4.8-2.2c0.1,0,0.2,0,0.4,0
	c-1.1,1.2-4.4,3.9-4.4,6.1c0,1.4,1.6,3.6,3.7,3.6c-0.1-0.5-0.1-0.9-0.1-1.2c0-1.8,1.6-3.8,2.9-5.3c0,0.4,0,0.4,0,0.9
	c0,4.2,0.4,6.1,3,6.1c1.3,0,2.2-0.7,2.5-0.9c-1.7-1.6-1.8-2.8-1.8-5.2c0-0.6,0-1.2,0-2c0-0.5,0-1.2-0.1-1.8c1-0.1,1.3-0.1,2.1-0.1
	c0,0,3.8-0.3,4.7,1.7c1-0.9,2.5-2.3,2.5-3.7c0-1-0.5-2.1-2.4-2.1c-0.7,0-3.1,0.5-5,0.5c0.5-1.2,2.8-4.5,4.8-7c0.3,1,0.8,2,1.8,2.8
	c0.1-1.6,1.1-6.6,3.5-9.5c0.3,2,0.7,4,0.7,8.3c0,10.4-2.5,18-7.8,19.5c0.7,1.2,2.1,2.3,3.7,2.3c1.9,0,3-2.2,4.1-4.3
	c0.6,1.5,2.1,5.3,3.7,5.3c1.5,0,3.1-3.7,3.7-5.3c1.1,2.1,2.1,4.3,4.1,4.3c1.5,0,3-1.1,3.7-2.3c-5.3-1.5-7.8-9.1-7.8-19.5
	c0-4.3,0.4-6.3,0.7-8.3c2.5,2.9,3.4,7.9,3.5,9.5c1-0.8,1.5-1.9,1.8-2.8c2,2.5,4.3,5.8,4.8,7c-1.9,0-4.2-0.5-5-0.5
	c-1.9,0-2.4,1.1-2.4,2.1c0,1.5,1.5,2.8,2.5,3.7c0.9-2,4.7-1.7,4.7-1.7c0.7,0,1.1,0,2.1,0.1c-0.1,0.5-0.1,1.2-0.1,1.8
	c0,0.8,0,1.4,0,2c0,2.3-0.1,3.6-1.8,5.2c0.3,0.2,1.2,0.9,2.5,0.9c2.7,0,3-1.9,3-6.1c0-0.5,0-0.5,0-0.9c1.3,1.4,2.9,3.5,2.9,5.3
	c0,0.3,0,0.7-0.1,1.2c2.1,0,3.7-2.2,3.7-3.6c0-2.2-3.3-4.9-4.4-6.1c0.2,0,0.3,0,0.4,0c3.7,0,4.4,1.2,4.8,2.2c1-0.8,1.8-2.2,1.8-4
	c0-1-0.2-2.2-2.2-2.2c-1.9,0-4.8,0.3-6.8,0.6c-1.5-2.1-4.5-6.3-6-9.5c0.6,0.1,1.4,0.2,2.6,0.2c0.6,0,1.3-0.1,1.7-0.2
	c-6.1-5.3-11.1-12.1-11.1-19.8c0-1.2,0.3-2.5,0.7-3.8c0.1,0,0.3-0.1,0.5-0.1l15.3,24.5c4.6,7.3,8.2,7.1,13.6,7.1
	c-4.5-3.4-7.5-7.9-8.9-10.1l-14.4-23c0.8-0.3,1.5-0.5,2.3-0.8l12.7,20.4c4.6,7.3,8.2,7.1,13.6,7.1c-4.5-3.5-7.5-7.8-8.9-10.1
	l-12.4-19.8c0.7-0.4,1.4-0.8,2.1-1.2l10.1,16.2c4.6,7.3,8.2,7.1,13.6,7.1c-4.5-3.5-7.4-7.8-8.9-10.1l-10.4-16.6
	c0.6-0.5,1.2-1.1,1.7-1.7l7.4,11.8c4.6,7.3,8.2,7.1,13.6,7.1c-4.5-3.5-7.5-7.8-8.9-10.1l-8.6-13.7c0.5-0.9,0.9-1.7,1.2-2.6
	 M-107.7,158.5c0-5.1,3.7-9.2,5-10.3c0.3,0.1,0.6,0.2,0.9,0.2c-1.4,1.7-3.8,4.5-3.8,8.3c0,7.5,8,14,17,14c-0.1,0.6-0.1,1.3-0.1,2
	c0,1.1,0.1,2.1,0.2,3.1C-98.6,175.8-107.7,167.5-107.7,158.5z M-93.8,219.9l-0.1,0.2h0.2c2.9,0,4.3-0.2,5.2-0.3
	c0.5-0.1,0.8-0.1,1.2-0.1c0.7,0,1.3,0.1,1.3,1c0,0.6-0.7,1.6-1.4,2.2c-1.1-1-2.5-1.2-4.7-1.2c-1,0-2.3,0.2-3,0.3l-0.1,0l-0.1,0
	l0,0.3c0.1,0.6,0.2,1.3,0.2,2.3l0,0.9l0,1.1c0,2.4,0.3,3.8,1.2,4.9c-0.2,0.1-0.6,0.1-0.8,0.1c-1.5,0-2-0.7-2-5c0-0.9,0-1.7-0.1-2.2
	l0-0.8l-0.2,0.1c-2.3,1.7-4.6,4.8-4.7,7.1c-0.7-0.4-1.4-1.4-1.4-2.2c0-1.3,1.9-3.1,4.1-5.3l1.3-1.3l0.2-0.2l-0.4-0.1
	c-0.5-0.1-1.3-0.3-2.1-0.3c-2.4,0-4,0.5-4.9,1.5c-0.3-0.5-0.6-1.6-0.6-2.3c0-0.4,0.1-0.7,0.3-0.9c0.2-0.2,0.5-0.2,0.8-0.2h0.1
	c2.7,0,5.9,0.5,7.2,0.7l0.1,0l0.1-0.1c0.2-0.3,5.3-7.1,6.7-10.8c0.3-0.1,0.6-0.2,1.1-0.2c1,0,1.3,0.7,1.6,1.7
	C-91.1,214.8-93.1,217.8-93.8,219.9z M-66.1,209.2c0.5,0,0.8,0.1,1.1,0.2c1.3,3.6,6.5,10.5,6.7,10.8l0,0.1l0.1,0
	c1.3-0.2,4.5-0.7,7.2-0.7h0.1c0.3,0,0.6,0,0.8,0.2c0.2,0.2,0.3,0.5,0.3,0.9c0,0.7-0.3,1.8-0.6,2.3c-0.9-1-2.5-1.5-4.9-1.5
	c-0.7,0-1.6,0.2-2.1,0.3l-0.2,0l-0.2,0.1l1.4,1.4c2.2,2.2,4.1,4.1,4.1,5.3c0,0.8-0.7,1.7-1.4,2.2c-0.1-2.3-2.5-5.4-4.7-7.1l-0.2-0.1
	l0,0.8c0,0.5-0.1,1.4-0.1,2.2c0,4.4-0.4,5-2,5c-0.2,0-0.6-0.1-0.8-0.1c0.9-1.1,1.2-2.4,1.2-4.9l0-1.1l0-0.9c0-1,0.1-1.7,0.2-2.3
	l0-0.3l-0.2,0c-0.7-0.1-2-0.3-3-0.3c-2.2,0-3.6,0.2-4.7,1.2c-0.7-0.6-1.4-1.5-1.4-2.2c0-0.9,0.6-1,1.3-1c0.4,0,0.7,0.1,1.2,0.1
	c0.9,0.1,2.3,0.3,5.2,0.3h0.2l-0.1-0.2c-0.7-2.1-2.7-5.1-5.9-9C-67.4,209.8-67.1,209.2-66.1,209.2z M-78,149.5
	c-0.3-1.3-1-2.7-1.9-3.7c-0.8-0.9-2.1-2-3.8-2c-0.8,0-2.2,0.4-3,0.7c-0.3-0.6-0.9-2-0.9-2.6c0-0.6,1.1-1.3,3.2-1.3
	c4.6,0,7.4,2.1,7.4,5.6C-77,147.4-77.5,148.5-78,149.5z M-75.9,144.9c-0.2-1-0.5-1.9-1.1-2.7c0-0.9,0.4-1.8,1.9-1.1
	c-0.8,0.8-0.2,2.2-0.2,2.2s1.6-0.7,1.3-1.8C-71.7,142.2-73.4,145.4-75.9,144.9z M-66.9,175.9c0.1-1,0.2-2,0.2-3.1c0-0.6,0-1.3-0.1-2
	c8.9-0.1,16.8-6.6,16.8-14c0-3.8-2.5-6.6-3.8-8.3c0.3-0.1,0.6-0.1,0.9-0.2c1.3,1.1,5,5.2,5,10.3C-47.9,167.4-56.7,175.7-66.9,175.9z
	"/>
<polyline points="17.6,142.9 17.6,232.7 10.9,232.7 1.9,232.7 1.9,142.9 "/>
</svg>
